<?xml version="1.0" encoding="UTF-8"?>
<svg id="Layer_1" data-name="Layer 1" xmlns="http://www.w3.org/2000/svg" xmlns:xlink="http://www.w3.org/1999/xlink" viewBox="0 0 1051.35 364.86">
  <defs>
    <style>
      .cls-1 {
        fill: url(#linear-gradient);
      }

      .cls-1, .cls-2, .cls-3, .cls-4, .cls-5 {
        stroke-width: 0px;
      }

      .cls-6 {
        letter-spacing: 0em;
      }

      .cls-7 {
        letter-spacing: -.02em;
      }

      .cls-8 {
        letter-spacing: -.06em;
      }

      .cls-9 {
        letter-spacing: -.04em;
      }

      .cls-10 {
        letter-spacing: -.02em;
      }

      .cls-2, .cls-11 {
        fill: #4392e3;
      }

      .cls-12 {
        letter-spacing: -.06em;
      }

      .cls-11 {
        font-family: Mortend-Bold, Mortend;
        font-size: 95.21px;
        font-weight: 700;
      }

      .cls-3 {
        fill: #fff;
      }

      .cls-4 {
        fill: url(#linear-gradient-2);
      }

      .cls-5 {
        fill: #0c264c;
      }

      .cls-13 {
        letter-spacing: -.04em;
      }

      .cls-14 {
        letter-spacing: -.04em;
      }

      .cls-15 {
        letter-spacing: -.05em;
      }
    </style>
    <linearGradient id="linear-gradient" x1="183.4" y1="195.58" x2="183.4" y2="11.38" gradientUnits="userSpaceOnUse">
      <stop offset="0" stop-color="#ff5e57"/>
      <stop offset=".62" stop-color="#ffbd4a"/>
    </linearGradient>
    <linearGradient id="linear-gradient-2" x1="12.84" y1="267.96" x2="353.95" y2="267.96" gradientUnits="userSpaceOnUse">
      <stop offset="0" stop-color="#3784de"/>
      <stop offset="1" stop-color="#7bd2fd"/>
    </linearGradient>
  </defs>
  <g>
    <g>
      <circle class="cls-3" cx="183.4" cy="182.43" r="171.05"/>
      <g>
        <path class="cls-1" d="m183.4,182.43c70.74,0,133.19,5.2,170.55,13.14.33-4.34.5-8.72.5-13.14,0-94.47-76.58-171.05-171.05-171.05S12.35,87.96,12.35,182.43c0,4.42.17,8.81.5,13.14,37.36-7.94,99.81-13.14,170.55-13.14Z"/>
        <path class="cls-4" d="m353.15,203.6c.33-2.66.6-5.33.8-8.02-37.36-7.94-99.81-13.14-170.55-13.14s-133.19,5.2-170.55,13.14l185.67,1.11-174.51,12.09,34.56,6.91-41.54,6.59c2.11,8.82,4.89,17.38,8.31,25.61l72.97-2.83-30.24,6.05,151.18,2.59-187.38,8.15c6.09,11.59,13.47,22.4,21.95,32.24l77.31,2.81-66.28,8.84c3.96,3.81,8.1,7.43,12.42,10.84l45.22,2.78-34.85,4.82c27.32,18.49,60.27,29.3,95.75,29.3s65.08-9.73,91.55-26.54l-61.75-5.86h70.36c5.62-4.07,10.99-8.46,16.06-13.17l-86.43-8.43,101.11-6.97c.96-1.15,1.91-2.3,2.85-3.47l-121.23-10.29,132.43-5.49c1.33-2.12,2.61-4.26,3.85-6.44l-42.98-7.08,36.28-2.59-26.78-2.59,31.1-6.05-139.95-16.41h157.24c1.62-5.36,2.99-10.82,4.09-16.38l-54.21-12.13h56.15Z"/>
      </g>
      <path class="cls-2" d="m183.4,182.43c-19.18,0-37.74.39-55.36,1.1l86.47,5.81-43.63,1.73,90.28,3.89-102.8,9.5,78.61,5.62-71.7,4.32,151.61,5.18-82.93-15.98,39.74-1.73-13.39-3.02,57.88-3.02-47.08-6.48,32.44-1.28c-33.88-3.55-75.33-5.63-120.12-5.63Z"/>
      <polygon class="cls-2" points="139.77 231.24 272.38 248.52 142.36 235.99 248.19 252.41 225.3 255.86 279.72 260.18 143.23 268.39 213.63 260.62 199.38 260.62 224.87 252.41 157.48 244.63 172.17 243.77 87.94 232.11 134.16 234.7 114.72 229.95 139.77 231.24"/>
      <path class="cls-5" d="m331.16,162.13l4.74-4.74c1.4-1.4,1.4-3.66,0-5.06s-3.66-1.4-5.06,0l-.39.39-1.52-20.15,4.76-4.76c1.4-1.4,1.4-3.66,0-5.06-1.4-1.4-3.66-1.4-5.06,0l-.42.42-1.8-23.86c13.07-12.33,23.43-22.15,25.77-24.49,9.27-9.27,6.34-23.31,4.92-24.73s-15.47-4.35-24.73,4.92c-2.34,2.34-12.16,12.7-24.49,25.77l-23.86-1.8.42-.42c1.4-1.4,1.4-3.66,0-5.06s-3.66-1.4-5.06,0l-4.76,4.76-20.15-1.52.39-.39c1.4-1.4,1.4-3.66,0-5.06s-3.66-1.4-5.06,0l-4.74,4.74-31.15-2.35-6.99,6.99,56.88,16.39,16.31,13.2c-14.6,17.44-37.55,43.82-37.55,43.82l-30.86-3.64-4.7,4.7,22.24,13.69c-2.42,2.71-1.57,4.99-1.57,4.99-4.28,4.28-2.42,8.13-2.42,8.13,0,0,3.85,1.85,8.13-2.42,0,0,2.28.86,4.99-1.57l13.69,22.24,4.7-4.7-3.64-30.86s26.37-22.95,43.82-37.55l13.2,16.31,16.39,56.88,6.99-6.99-2.35-31.15Z"/>
      <path class="cls-5" d="m159.71,234.22c-10.67,7.47-21.54,14.6-32.61,21.25-11.07,6.65-22.36,12.84-33.82,18.19-5.73,2.67-11.5,5.12-17.27,7.23-5.76,2.1-11.55,3.86-17.1,4.99-2.77.56-5.47.94-7.97,1.09-2.49.14-4.8.04-6.53-.32-.85-.18-1.54-.43-2.04-.66-.46-.26-.71-.5-.77-.65-.07-.15.08-.24.19-.28.11-.04.21-.05.25-.27.06-.34-.05-1.51.12-3.22.07-.67.18-1.42.31-2.21-10.01-14.53-17.81-30.68-22.97-47.98-2.04,4.95-3.94,10.04-5.65,15.3-2.24,7.09-4.21,14.45-5.21,22.74-.48,4.15-.71,8.56-.33,13.4.22,2.44.56,4.95,1.25,7.63.64,2.64,1.64,5.44,3.07,8.21,2.75,5.58,7.87,10.84,13.5,13.71,2.79,1.45,5.61,2.41,8.31,3.04,2.67.58,5.23.86,7.64.94,4.81.13,9.08-.45,13.07-1.25,3.98-.82,7.67-1.93,11.2-3.17,7.04-2.5,13.49-5.54,19.68-8.81,6.17-3.28,12.07-6.82,17.79-10.52,11.44-7.41,22.21-15.43,32.61-23.81,10.39-8.38,20.4-17.13,30.11-26.14,19.4-18.03,37.64-37.11,54.91-56.9-19.82,17.24-40.38,33.53-61.72,48.48Z"/>
    </g>
    <path class="cls-5" d="m267.56,185.05c-13.35-4.64-41.53-13.8-51.77-12.34-13.61,1.94-19.44,3.24-31.1,1.3-11.66-1.94-17.49-3.24-25.92-4.54-8.42-1.3-7.13-5.83-18.79-5.83s-25.92.65-25.92.65l-23.97,3.24s-3.24-4.54-8.42-5.18-8.42-5.83-15.55-6.48c-7.13-.65-11.01-.65-14.25.65s-9.07,1.94-12.96,1.94-5.83-1.94-9.07-1.94-3.89-1.3-8.42-1.3c-1.5,0-4.12.14-6.96.33-1.38,8.76-2.11,17.74-2.11,26.88,0,4.42.17,8.81.5,13.14,37.36-7.94,99.81-13.14,170.55-13.14,29.97,0,58.44.94,84.16,2.62Z"/>
  </g>
  <text class="cls-11" transform="translate(414.33 171.3)"><tspan class="cls-15" x="0" y="0">V</tspan><tspan x="95.11" y="0">E</tspan><tspan class="cls-12" x="178.61" y="0">L</tspan><tspan class="cls-14" x="256.39" y="0">O</tspan><tspan class="cls-7" x="348.64" y="0">CI</tspan><tspan class="cls-8" x="468.12" y="0">T</tspan><tspan class="cls-6" x="540.38" y="0">Y</tspan><tspan class="cls-12" x="0" y="85.71">E</tspan><tspan class="cls-13" x="77.78" y="85.71">X</tspan><tspan class="cls-10" x="171.56" y="85.71">P</tspan><tspan class="cls-12" x="260.29" y="85.71">R</tspan><tspan class="cls-7" x="348.64" y="85.71">E</tspan><tspan class="cls-9" x="430.23" y="85.71">S</tspan><tspan x="512.59" y="85.71">S</tspan></text>
</svg>